<svg width="512" height="512" viewBox="0 0 512 512" fill="none" xmlns="http://www.w3.org/2000/svg">
<rect width="512" height="512" fill="#454DFF"/>
<path d="M402.032 448H315.127V410.473H105.324V344.034H402.049V448H402.032ZM321.87 441.257H395.288V350.778H112.051V403.73H321.853V441.257H321.87ZM410.562 326.805H96.7771V259.928H410.562V326.805ZM103.52 320.062H403.819V266.671H103.52V320.062Z" fill="white"/>
<path d="M410.815 157.716C403.06 149.961 393.687 146.083 382.695 146.083H353.48C351.76 146.083 350.226 145.46 348.911 144.195C347.579 142.931 346.922 141.38 346.922 139.526V105.741V64H325.663C325.663 64 325.579 64 325.528 64H267.3V64.354L255.296 112.754L247.103 146.1H219.236C217.517 146.1 215.983 145.477 214.668 144.212C213.336 142.948 212.678 141.397 212.678 139.542V105.741V64H191.42C191.42 64 191.336 64 191.285 64H133.056V64.354L121.053 112.754L90 238.99H133.275V238.922H154.332C162.053 238.922 169.015 237.22 175.253 233.798C178.877 231.825 182.232 229.246 185.334 226.11C193.814 217.563 198.062 207.262 198.062 195.192V156.822H216.674C218.528 156.822 220.079 157.446 221.344 158.71C222.49 159.874 223.097 161.29 223.198 162.942H223.232V238.922H224.294V238.99H267.552V238.922H288.608C296.33 238.922 303.292 237.22 309.53 233.798C313.154 231.825 316.509 229.246 319.611 226.11C328.091 217.563 332.339 207.262 332.339 195.192V156.822H350.951C352.805 156.822 354.356 157.446 355.621 158.71C356.767 159.874 357.374 161.29 357.475 162.942H357.509V238.922H378.969C391.023 238.922 401.29 234.64 409.786 226.093C418.266 217.546 422.515 207.246 422.515 195.192V185.852C422.515 174.861 418.637 165.471 410.882 157.733L410.815 157.716Z" fill="white"/>
</svg>
